<svg id="171200478" viewBox="0 0 250.00000000000003 147.19855705626026" height="147.19855705626026" width="250.00000000000003" style="width: 250px; height: 147.199px; position: absolute; top: 50%; left: 50%; transform: translate(-50%, -50%) scale(1.32); z-index: 0; cursor: pointer; overflow: visible;"><defs id="SvgjsDefs1632"></defs><g id="SvgjsG1633" featurekey="symbolFeature-0" transform="matrix(0.22267722335745987,0,0,0.22267722335745987,154.06834100439877,-5.455591972257767)" fill="#0d7377"><path xmlns="http://www.w3.org/2000/svg" fill="#0d7377" stroke="#0d7377" stroke-width="2" stroke-miterlimit="10" d="M-265.4,161.1l-3.4,4.2c-0.1,0.1-0.2,0.2-0.3,0.2  h-21.4c-0.2,0-0.4-0.2-0.4-0.4c0.1-1.1,0.1-2.3,0.1-3.4c0-0.3,0-0.5,0-0.8c0-0.2,0.2-0.4,0.4-0.4h24.7  C-265.3,160.5-265.2,160.9-265.4,161.1z"></path><path xmlns="http://www.w3.org/2000/svg" fill="#0d7377" stroke="#0d7377" stroke-width="2" stroke-miterlimit="10" d="M-275.7,173.7h-16c-0.3,0-0.6-0.3-0.5-0.6  c0.3-1.3,0.6-2.6,0.8-4c0-0.2,0.2-0.4,0.5-0.4h18.3c0.4,0,0.7,0.5,0.4,0.8l-3.2,4C-275.4,173.7-275.6,173.7-275.7,173.7z"></path><path xmlns="http://www.w3.org/2000/svg" fill="#0d7377" stroke="#0d7377" stroke-width="2" stroke-miterlimit="10" d="M-282.1,181.7H-295c-0.3,0-0.5-0.3-0.3-0.6  c0.7-1.3,1.4-2.7,1.9-4.2c0.1-0.2,0.2-0.3,0.4-0.3h14.4c0.3,0,0.5,0.4,0.3,0.6l-3.4,4.2C-281.8,181.7-281.9,181.7-282.1,181.7z"></path><path xmlns="http://www.w3.org/2000/svg" fill="#0d7377" stroke="#0d7377" stroke-width="2" stroke-linecap="round" stroke-linejoin="round" stroke-miterlimit="10" d="  M-296.2,157.8c-0.4,0-0.7,0.1-1.1,0.1c-6.2,0-11.5-2.2-12.8-7.8c0,0-0.1,0-0.1,0c0,0-0.1,0-0.1,0c-1.2,5.7-6.6,7.8-12.8,7.8  c-0.4,0-0.7,0-1.1-0.1c-0.5,1.7-0.8,3.5-0.8,5.4c-0.1,12.5,6.6,23.1,14.8,23.1c8.2,0,14.7-10.6,14.8-23.1  C-295.3,161.3-295.7,159.5-296.2,157.8z"></path><path xmlns="http://www.w3.org/2000/svg" fill="#0d7377" stroke="#0d7377" stroke-width="2" stroke-miterlimit="10" d="M-355,161.1l3.4,4.2c0.1,0.1,0.2,0.2,0.3,0.2h21.4  c0.2,0,0.4-0.2,0.4-0.4c-0.1-1.1-0.1-2.3-0.1-3.4c0-0.3,0-0.5,0-0.8c0-0.2-0.2-0.4-0.4-0.4h-24.7C-355,160.5-355.2,160.9-355,161.1z  "></path><path xmlns="http://www.w3.org/2000/svg" fill="#0d7377" stroke="#0d7377" stroke-width="2" stroke-miterlimit="10" d="M-344.6,173.7h16c0.3,0,0.6-0.3,0.5-0.6  c-0.3-1.3-0.6-2.6-0.8-4c0-0.2-0.2-0.4-0.5-0.4h-18.3c-0.4,0-0.7,0.5-0.4,0.8l3.2,4C-344.9,173.7-344.8,173.7-344.6,173.7z"></path><path xmlns="http://www.w3.org/2000/svg" fill="#0d7377" stroke="#0d7377" stroke-width="2" stroke-miterlimit="10" d="M-338.3,181.7h12.9c0.3,0,0.5-0.3,0.3-0.6  c-0.7-1.3-1.4-2.7-1.9-4.2c-0.1-0.2-0.2-0.3-0.4-0.3h-14.4c-0.3,0-0.5,0.4-0.3,0.6l3.4,4.2C-338.5,181.7-338.4,181.7-338.3,181.7z"></path><polygon xmlns="http://www.w3.org/2000/svg" fill="#0d7377" stroke="#0d7377" stroke-width="2" stroke-linecap="round" stroke-linejoin="round" stroke-miterlimit="10" points="  -302,168 -302,172 -308,172 -308,178 -312,178 -312,172 -318,172 -318,168 -312,168 -312,162 -308,162 -308,168 "></polygon><path xmlns="http://www.w3.org/2000/svg" d="M93,36H70.5c-4.5-6.9-12.2-11.5-21-11.5c-8.8,0-16.6,4.6-21,11.5H6c-0.6,0-1,0.4-1,1v25c0,0.6,0.4,1,1,1h22.5  c4.5,6.9,12.2,11.5,21,11.5c8.8,0,16.6-4.6,21-11.5H93c0.6,0,1-0.4,1-1V37C94,36.4,93.6,36,93,36z M71.7,38H92v10H74.5  c0-0.1,0-0.2,0-0.3c0-0.3-0.1-0.7-0.1-1c0-0.2,0-0.3-0.1-0.5c0-0.3-0.1-0.6-0.1-0.9c0-0.2-0.1-0.3-0.1-0.5c-0.1-0.3-0.1-0.6-0.2-0.9  c0-0.1-0.1-0.3-0.1-0.4c-0.1-0.3-0.2-0.7-0.3-1c0-0.1-0.1-0.2-0.1-0.3c-0.1-0.4-0.3-0.8-0.4-1.2c-0.1-0.2-0.2-0.4-0.3-0.7  c-0.1-0.2-0.1-0.4-0.2-0.6c-0.1-0.3-0.2-0.5-0.3-0.8c-0.1-0.1-0.1-0.3-0.2-0.4C71.9,38.3,71.8,38.2,71.7,38z M57.4,52.8l1.7,9.6  l-8.7-4.6c-0.5-0.3-1.2-0.3-1.7,0L40,62.4l1.7-9.7c0.1-0.6-0.1-1.2-0.5-1.7l-7-6.8l9.7-1.4c0.6-0.1,1.1-0.5,1.4-1l4.3-8.8l4.3,8.8  c0.3,0.6,0.8,0.9,1.4,1l9.7,1.4l-7,6.8C57.5,51.6,57.3,52.2,57.4,52.8z M27.3,38c-0.1,0.2-0.1,0.3-0.2,0.5c-0.1,0.1-0.1,0.3-0.2,0.4  c-0.1,0.2-0.2,0.5-0.3,0.7c-0.1,0.2-0.2,0.4-0.2,0.6c-0.1,0.2-0.2,0.4-0.3,0.6c-0.2,0.4-0.3,0.8-0.4,1.2c0,0.1-0.1,0.2-0.1,0.3  c-0.1,0.3-0.2,0.7-0.3,1c0,0.1-0.1,0.3-0.1,0.4c-0.1,0.3-0.1,0.6-0.2,0.9c0,0.2-0.1,0.3-0.1,0.5c-0.1,0.3-0.1,0.6-0.1,0.9  c0,0.2,0,0.3-0.1,0.5c0,0.3-0.1,0.7-0.1,1c0,0.1,0,0.2,0,0.3H7V38H27.3z M27.3,61H7V50h17.5c0,0.3,0,0.6,0,0.9c0,0.1,0,0.3,0,0.4  c0,0.3,0.1,0.7,0.1,1c0,0.2,0,0.3,0.1,0.5c0,0.3,0.1,0.6,0.1,0.9c0,0.2,0.1,0.3,0.1,0.5c0.1,0.3,0.1,0.6,0.2,0.9  c0,0.1,0.1,0.3,0.1,0.4c0.1,0.3,0.2,0.7,0.3,1c0,0.1,0.1,0.2,0.1,0.3c0.1,0.4,0.3,0.8,0.4,1.2c0.1,0.2,0.2,0.4,0.3,0.6  c0.1,0.2,0.2,0.4,0.2,0.6c0.1,0.2,0.2,0.5,0.3,0.7c0.1,0.1,0.1,0.3,0.2,0.4C27.1,60.7,27.2,60.8,27.3,61z M71.7,61  c0.1-0.2,0.2-0.3,0.2-0.5c0.1-0.1,0.1-0.3,0.2-0.4c0.1-0.3,0.2-0.5,0.3-0.8c0.1-0.2,0.2-0.4,0.2-0.6c0.1-0.2,0.2-0.4,0.3-0.7  c0.1-0.4,0.3-0.8,0.4-1.2c0-0.1,0.1-0.2,0.1-0.3c0.1-0.3,0.2-0.7,0.3-1c0-0.1,0.1-0.3,0.1-0.4c0.1-0.3,0.1-0.6,0.2-0.9  c0-0.2,0.1-0.3,0.1-0.5c0.1-0.3,0.1-0.6,0.1-0.9c0-0.2,0-0.3,0.1-0.5c0-0.3,0.1-0.7,0.1-1c0-0.1,0-0.3,0-0.4c0-0.3,0-0.6,0-0.9H92  v11H71.7z"></path></g><g id="SvgjsG1634" featurekey="nameFeature-0" transform="matrix(2.4492297573044124,0,0,2.4492297573044124,-5.036109797890709,21.82736622592291)" fill="#323232"><path d="M10.179 22.91 c0 4.3656 7.3792 6.4436 7.3792 11.489 c0 3.8096 -3.5464 5.8592 -8.1064 5.8592 c-4.1296 0 -7.3956 -2.0952 -7.3956 -5.4968 c0 -1.3016 0.7096 -1.9904 1.4396 -2.1484 l5.1332 -9.404 c0.2332 -0.9388 0.6848 -1.8316 1.168 -2.6036 c0.35879 -0.5656 0.8124 -1.0028 1.0208 -1.0028 c0.21801 0 0.33922 0.1848 0.27562 0.35442 c-0.5076 0.924 -0.9144 1.7888 -0.9144 2.9528 z M9.066 39.58836 c4.138 0 5.4948 -2.1268 5.4948 -4.4468 c0 -3.5588 -6.3848 -5.9404 -6.1848 -10.245 l-4.208 7.7476 c0.5744 0.10641 1.0856 0.5736 1.0856 1.3996 c0 1.1932 -1.4564 1.484 -1.4564 2.4936 c0 1.6068 2.3764 3.0508 5.2688 3.0508 z M47.905 21.96 c0.18602 0 0.31644 0.12883 0.31644 0.31524 c0 0.17801 -0.12961 0.30762 -0.31562 0.30762 l-1.044 0 c-0.76 0 -1.2084 0.2732 -1.4084 0.8732 l-5.5364 16.544 l-0.75602 0 l-4.8028 -13.411 l-4.1408 13.411 l-0.75602 0 l-6.2384 -16.461 c-0.2816 -0.7312 -0.8028 -0.956 -1.3616 -0.956 l-0.96398 0 c-0.18602 0 -0.31562 -0.12961 -0.31562 -0.31562 c0 -0.17801 0.12961 -0.30762 0.31562 -0.30762 l8.014 0 c0.18602 0 0.31562 0.12961 0.31562 0.31602 c0 0.17801 -0.12961 0.30762 -0.31602 0.30762 l-1.6648 0 c-0.5356 0 -0.8288 0.27801 -0.8288 0.6368 c0 0.094804 0.0064064 0.19121 0.050392 0.31883 l4.5172 11.988 l4.2384 -13.568 l0.64 0 l4.884 13.602 l4 -12.022 c0.046796 -0.1348 0.054412 -0.2348 0.054412 -0.33121 c0 -0.36558 -0.2732 -0.6248 -0.7368 -0.6248 l-1.778 0 c-0.18641 0 -0.31602 -0.12961 -0.31602 -0.31562 c0 -0.17801 0.12961 -0.30762 0.31602 -0.30762 l5.618 0 z M52.665600000000005 15.788 c0 -1.0068 0.8288 -1.8356 1.8676 -1.8356 c0.9904 0 1.8196 0.8288 1.8196 1.8356 c0 0.9904 -0.8292 1.8192 -1.8196 1.8192 c-1.0388 0 -1.8676 -0.8288 -1.8676 -1.8192 z M58.0808 39.3764 c0.18641 0 0.31558 0.12969 0.31558 0.3077 c0 0.18641 -0.12961 0.31602 -0.31602 0.31602 l-7.12 0 c-0.18641 0 -0.31602 -0.12961 -0.31602 -0.31602 c0 -0.17801 0.12961 -0.30762 0.31602 -0.30762 l1.036 0 c0.578 0 0.96404 -0.4496 0.96404 -0.96404 l0 -14.865 c0 -0.5144 -0.38602 -0.96404 -0.96404 -0.96404 l-1.036 0 c-0.18641 0 -0.31602 -0.12961 -0.31602 -0.30762 c0 -0.18641 0.12961 -0.31602 0.31602 -0.31602 l5.12 0 l0 16.452 c0 0.5144 0.38641 0.96404 0.9644 0.96404 l1.036 0 z M82.038 39.3764 c0.18641 0 0.31508 0.12961 0.31508 0.30762 c0 0.18641 -0.12961 0.31602 -0.31602 0.31602 l-7.12 0 c-0.18602 0 -0.31562 -0.12961 -0.31562 -0.31602 c0 -0.17801 0.12961 -0.30762 0.31602 -0.30762 l1.036 0 c0.578 0 0.96404 -0.4496 0.96404 -0.96404 l0 -10.392 c0 -4.0236 -1.9984 -5.192 -3.6784 -5.192 c-3.5684 0 -6.0016 3.8096 -6.0016 8.2676 l0 7.316 c0 0.5144 0.38641 0.96404 0.9644 0.96404 l1.036 0 c0.18641 0 0.31602 0.12961 0.31602 0.30762 c0 0.18641 -0.12961 0.31602 -0.31602 0.31602 l-7.12 0 c-0.18641 0 -0.31602 -0.12961 -0.31602 -0.31602 c0 -0.17801 0.12961 -0.30762 0.31602 -0.30762 l1.036 0 c0.578 0 0.96404 -0.4496 0.96404 -0.96404 l0 -14.865 c0 -0.5144 -0.38602 -0.96404 -0.96404 -0.96404 l-1.036 0 c-0.18641 0 -0.31602 -0.12961 -0.31602 -0.30762 c0 -0.18641 0.12961 -0.31602 0.31602 -0.31602 l5.12 0 l0 5.5 c1.0316 -3.3048 3.5408 -5.7412 7.11 -5.7412 c3.44 0 5.6896 2.0164 5.6896 5.5724 l0 11.121 c0 0.5144 0.38641 0.96404 0.9644 0.96404 l1.036 0 z M101.00999999999999 21.96 l3.1191 -0.00039062 l0 19.816 c0 6.2412 -3.6884 9.4124 -9.6772 9.4124 c-4.894 0 -7.8664 -2.9612 -7.8664 -5.9004 c0 -1.5504 0.982 -2.258 1.876 -2.258 c0.774 0 1.4912 0.5392 1.4912 1.546 c0 1.342 -1.3916 1.3104 -1.3916 2.5836 c0 1.16 1.934 3.374 5.6816 3.374 c4.662 0 6.7668 -3.5876 6.7668 -7.5488 l0 -8.3684 c-1.1088 3.3544 -3.5128 5.7048 -6.7612 5.7048 c-4.0884 0 -7.8176 -2.9176 -7.8176 -9.3548 c0 -6.084 3.7252 -9.3112 7.818 -9.3112 c3.306 0 5.6852 2.44 6.7612 5.7284 l0 -5.4236 z M95.13499999999999 39.40084 c3.0704 0 5.8992 -3.8168 5.8992 -8.3932 c0 -4.6112 -2.862 -8.4332 -5.8992 -8.4332 c-3.1132 0 -5.3544 2.5188 -5.3544 8.4016 c0 5.906 2.2412 8.4248 5.3544 8.4248 z"></path></g></svg>